<?xml version="1.0" encoding="utf-8"?><svg viewBox="0 0 240 62" xmlns="http://www.w3.org/2000/svg" xmlns:xlink="http://www.w3.org/1999/xlink"><style>:root>svg{display:none}:root>svg:target{display:block}</style><svg fill="none" viewBox="0 0 23 26" id="header--Account_Authorized" xmlns="http://www.w3.org/2000/svg"><path d="m13 15-1.346-.449a.77.77 0 0 0-.314-.042c-.668.06-3.349.5-6.59 3.741-2.452 2.452-3.3 4.583-3.594 5.765-.134.535.283.985.835.985H21.01c.552 0 .969-.45.835-.985-.133-.538-.382-1.144-.844-2.015" stroke="#FAA61A" stroke-width="2" stroke-linecap="round"/><path d="m15 18 2 2 4-4" stroke="#FAA61A" stroke-width="2" stroke-linecap="round" stroke-linejoin="round"/><circle cx="11.5" cy="5.5" r="4.5" stroke="#FAA61A" stroke-width="2"/></svg><svg fill="none" viewBox="0 0 23 26" id="header--Account_Not_Authorized" xmlns="http://www.w3.org/2000/svg"><path d="M21.009 25H1.99c-.552 0-.969-.45-.835-.985.294-1.182 1.142-3.313 3.594-5.765C8.5 14.5 11.5 14.5 11.5 14.5s3 0 6.75 3.75c2.452 2.452 3.3 4.583 3.594 5.765.134.535-.283.985-.835.985Z" stroke="#FAAD2D" stroke-width="2"/><circle cx="11.5" cy="5.5" r="4.5" stroke="#FAA61A" stroke-width="2"/></svg><svg fill="none" viewBox="0 0 14 16" id="header--Subtract" xmlns="http://www.w3.org/2000/svg"><path clip-rule="evenodd" d="M13 6.727C13 11.182 7 15 7 15s-6-3.818-6-8.273c0-1.519.632-2.975 1.757-4.05A6.148 6.148 0 0 1 7 1c1.591 0 3.117.603 4.243 1.677A5.599 5.599 0 0 1 13 6.727ZM7 9a2 2 0 1 0 0-4 2 2 0 0 0 0 4Z" stroke="#FAA61A" stroke-width="2"/></svg><svg fill="none" viewBox="0 0 16 16" id="header--baloon" xmlns="http://www.w3.org/2000/svg"><g clip-path="url(#ca)"><path clip-rule="evenodd" d="M14 6.727C14 11.182 8 15 8 15s-6-3.818-6-8.273c0-1.519.632-2.975 1.757-4.05A6.148 6.148 0 0 1 8 1c1.591 0 3.117.603 4.243 1.677A5.599 5.599 0 0 1 14 6.727ZM8 9a2 2 0 1 0 0-4 2 2 0 0 0 0 4Z" stroke="#FAA61A" stroke-width="2"/></g><defs><clipPath id="ca"><path fill="#fff" d="M0 0h16v16H0z"/></clipPath></defs></svg><svg fill="none" viewBox="0 0 17 16" id="header--email" xmlns="http://www.w3.org/2000/svg"><path d="m12.36 3.772-.707.707.707-.708Zm-8.456 0-.707-.708.707.708Zm0 8.456-.707.707.707-.707ZM11.132 15a1 1 0 1 0 0-2v2Zm4-5.912V7.823h-2V8h2V7.822h-2V9.088h2Zm0-1.088c0-1.909-.7-3.57-2.065-4.936L11.653 4.48c.998.998 1.48 2.155 1.48 3.521h2Zm-2.065-4.936C11.703 1.7 10.041 1 8.132 1v2c1.367 0 2.523.481 3.521 1.479l1.414-1.415ZM8.132 1c-1.908 0-3.57.7-4.935 2.064L4.61 4.48C5.609 3.48 6.766 3 8.132 3V1ZM3.197 3.065C1.832 4.429 1.132 6.09 1.132 8h2c0-1.366.481-2.523 1.48-3.522L3.196 3.065ZM1.132 8c0 1.909.7 3.57 2.065 4.935L4.61 11.52C3.613 10.523 3.132 9.366 3.132 8h-2Zm2.065 4.935C4.56 14.3 6.224 15 8.132 15v-2c-1.366 0-2.523-.481-3.521-1.48l-1.414 1.415ZM8.132 15h3v-2h-3v2Zm5-5.912c0 .293-.073.448-.133.533a.74.74 0 0 1-.298.238 1.543 1.543 0 0 1-.578.141c-.002 0-.002 0 0 0h.008l.001 1 .001 1h.02a1.743 1.743 0 0 0 .133-.006 3.539 3.539 0 0 0 1.277-.33 2.735 2.735 0 0 0 1.077-.899c.316-.452.492-1.015.492-1.678h-2Zm-1 1.912.001-1H12.142c.002 0 .001 0 0 0a1.543 1.543 0 0 1-.578-.141.741.741 0 0 1-.299-.238c-.06-.085-.133-.24-.133-.534h-2c0 .663.177 1.226.492 1.678.31.444.712.724 1.077.898a3.54 3.54 0 0 0 1.41.337H12.131l.001-1Zm-1-1.912V7.98h-2V8.5h2V7.98h-2V9.089h2Z" fill="#FAA61A"/><circle cx="8.132" cy="8" r="2" stroke="#FAA61A" stroke-width="2"/></svg><svg fill="none" viewBox="0 0 240 62" id="header--logo" xmlns="http://www.w3.org/2000/svg"><path fill-rule="evenodd" clip-rule="evenodd" d="M30.972 10.38c11.422-.042 20.704 9.183 20.746 20.592.043 11.422-9.183 20.704-20.591 20.746-11.409.043-20.704-9.183-20.747-20.591-.042-11.423 9.17-20.704 20.592-20.747ZM30.93.14C13.86.198.07 14.085.14 31.17c.057 17.07 13.945 30.86 31.015 30.803 17.07-.056 30.86-13.944 30.803-31.014C61.888 13.873 48 .085 30.93.14Z" fill="#000"/><path fill-rule="evenodd" clip-rule="evenodd" d="M15.563 14.042c-1.126-1.084-2.718-.704-4.014-2.352 5.916-3.338 11.831-6.662 17.76-10-.027 1.042.41 1.648-.098 3.127-.422 1.211-.112 1.042.55 2.127 1.746 2.817 3.479 5.634 5.225 8.436 1.169 2.803 1.028 5.395-1.155 7.634.577 1.14 1.14 2.268 1.718 3.409.352 1.338.705 2.662 1.057 4 1.507 0 3.014-.015 4.52-.015.86.141 1.733.296 2.592.437v1.704c-.338.099-.676.183-1.028.282 0 .676 0 1.352.014 2.028h.944v1.86c-.747 0-1.479 0-2.225.013-.508.888-2.761.55-4.057.69-.746-.633-1.028-.704-1.507-1.267-.887 0-1.774 0-2.676.014.155 2.76.31 5.535.479 8.296.423.535 1.366.394 1.268 1.62-.07.774-.972 1.169-1.775 1.042-2.775-.24-2.789-7.606-4.197-11.395a7822.693 7822.693 0 0 1-3.056 17.733l1.859 1.774c1.126.86.14 2.198-1.029 1.93-2.492-.606-5-1.211-7.492-1.831-1.268-.479-1.015-1.873-.677-3.254 1-5.366 1.986-10.732 2.986-16.098h-1.408c-.197.732-.211.944-.704.944-.831.014-1.662.014-2.507.028-.338 0-.719.098-.719-.888h-.69c-.507.93-1.056.648-1.746-.295-.155-.423-.24-1.24-.268-1.86-.028-.563-.014-1.394.099-1.704.69-.662 1.633-.718 2.155.212.084-.17.155-.339.239-.522.268-.591.606-.45.901-.45.902 0 1.803 0 2.705-.014.45 0 .493.324.605 1.112l2.521-.084-.084-1.775c-.76-1.394-.916-2.648-.14-3.31.661-.563 1.365-1.056 2.041-1.577-1.408-.324-2.76-.93-3.943-2.662-1.662-3.028-3.352-6.056-5.043-9.099Zm13.38 15.592 1.043.14.352-1.183-1.591-2.281-2.465-.127 2.662 3.45ZM134.761 24.747c2.507-.015 3.45 2.69 3.464 5.31.014 3.182-.943 5.549-3.38 5.549-2.704.014-3.38-3.07-3.394-5.522 0-2.436.746-5.323 3.31-5.337Zm.028-4.705c-5.366.014-9 3.972-8.986 10.014.028 6.564 3.648 10.282 9.056 10.268 5.099-.014 9.028-3.718 9-10.282 0-5.084-2.915-10.028-9.07-10Zm16.296 5.69-4.972.015.056 14.014 4.972-.015-.014-3.93.929-1.041 2.705 4.971 5.986-.028-5.268-8.563 4.62-5.45-5.817.027-3.169 4.296-.028-4.296Zm11.028-.042.07 18.789 4.972-.014-.028-6.155c.845 1.169 1.845 1.789 3.211 1.774 2.803-.014 5.859-2.028 5.831-7.535-.014-3.859-1.845-7.296-5.62-7.281-1.436 0-3.225.788-3.915 2.507h-.042V25.69h-4.479Zm6.957 10.141c-1.295 0-2.042-1.338-2.042-3.282 0-1.873.803-3.211 2-3.211 1.324 0 2.183 1.084 2.183 3.31 0 1.915-.831 3.183-2.141 3.183Zm14.212-5.901c.112-1.198 1.042-1.367 1.746-1.367.521 0 1.634.127 1.634 1.141.014 2.62-8.93-.24-8.901 6.127.014 2.915 2.126 4.225 4.493 4.211 1.873 0 3.295-.436 4.704-1.915l.239 1.493 5.141-.014v-.268c-.648-.592-.676-.986-.676-1.789L191.634 31c-.014-3.352-.38-5.803-6.31-5.789-4.958.014-6.831 1.76-6.831 4.733l4.789-.014Zm3.38 3.478c.014 2.141-.451 3.451-2.197 3.465-.986 0-1.578-.479-1.578-1.169 0-1.817 2.155-1.394 3.775-2.296Zm21.155-2.535c-.366-4.14-3.535-5.746-6.887-5.732-4.141.014-7.141 2.775-7.127 7.563.014 4.733 3.141 7.268 7.183 7.254 3.465-.014 6.521-1.606 6.944-5.86l-5.029.015c-.14 1.098-.633 2.084-1.929 2.098-1.465 0-2.183-1.38-2.183-3.493 0-1.662.296-3.83 2.169-3.83 1.098 0 1.817.9 1.831 2l5.028-.015Zm7.099-5.366-4.972.014.056 14.014 4.972-.014-.014-3.93.929-1.042 2.691 4.972 5.985-.028-5.267-8.563 4.62-5.451-5.817.028-3.169 4.296-.014-4.296Zm16 4.24c.112-1.198 1.042-1.367 1.746-1.367.521 0 1.634.127 1.634 1.141.014 2.62-8.93-.24-8.902 6.127.015 2.915 2.127 4.225 4.493 4.211 1.86 0 3.296-.437 4.705-1.915l.239 1.493 5.141-.014v-.268c-.648-.592-.676-.986-.676-1.789l-.028-6.55c-.014-3.351-.381-5.802-6.31-5.788-4.958.014-6.831 1.76-6.831 4.733l4.789-.014Zm3.394 3.492c0 2.141-.437 3.451-2.183 3.465-.986 0-1.578-.479-1.592-1.169-.014-1.817 2.155-1.408 3.775-2.296ZM82.845 13.732c0 3.324 2.465 3.733 3.409 3.733.943 0 3.394-.409 3.394-3.733 0-3.324-2.465-3.732-3.408-3.732-.93 0-3.395.422-3.395 3.732Zm1.479 0c0-1.986 1.113-2.478 1.916-2.478.802 0 1.93.492 1.93 2.478 0 1.986-1.128 2.48-1.916 2.48-.803.013-1.93-.494-1.93-2.48Zm7.732-1.718h-1.38l.014 5.254h1.38v-1.662l.578-.592 1.254 2.254h1.647l-1.901-3.226 1.845-2.028h-1.69l-1.733 2-.014-2Zm6.62 1.042c.944 0 1.183.845 1.183 1.69 0 .775-.338 1.522-1.225 1.522-.888 0-1.141-.972-1.141-1.592 0-.83.31-1.606 1.183-1.62Zm-1.183-1.042h-1.324l.014 7.366h1.38v-2.788l.029.014c.169.281.507.816 1.478.802 1.564 0 2.226-1.366 2.226-2.802 0-1.817-1.042-2.733-2.211-2.719-.93 0-1.31.493-1.564.902h-.014l-.014-.775Zm5.972 1.69c.042-.31.155-.732.845-.732.352 0 .915.028.915.62 0 .253-.211.408-.802.464-1.324.113-2.451.606-2.451 1.817 0 1.085.803 1.535 1.591 1.535.944 0 1.395-.436 1.705-.76.028.296.042.366.126.62h1.479v-.212c-.169-.056-.31-.197-.31-.817v-2.845c0-1.295-1.352-1.52-2.098-1.52-1.071 0-2.183.225-2.338 1.844l1.338-.014Zm1.76.986v.676c0 .634-.619 1.042-1.225 1.042-.268 0-.648-.14-.648-.633 0-.564.423-.705.944-.79.549-.098.789-.182.929-.295Zm5.719.648c0 .24-.24.915-.944.915-1.042 0-1.07-1.14-1.07-1.704 0-.648.225-1.52 1.098-1.52.648 0 .859.506.916.844h1.394c-.127-1.634-1.493-2.014-2.324-2.014-1.775 0-2.507 1.211-2.507 2.916 0 1.098.451 2.62 2.423 2.62 1.929 0 2.338-1.522 2.394-2.057h-1.38Zm4.76-3.493c-1.408 0-2.69.873-2.69 2.775 0 1.901 1.282 2.76 2.69 2.76 1.409 0 2.676-.887 2.676-2.774 0-1.902-1.267-2.76-2.676-2.76Zm0 1.17c1.071 0 1.268.929 1.268 1.605 0 .676-.197 1.605-1.254 1.605-1.07 0-1.267-.93-1.267-1.605-.014-.69.197-1.606 1.253-1.606Zm3.606-1.03v1.578c0 1.338.746 1.831 1.775 1.831.535 0 1-.056 1.478-.169v2.014h1.381v-5.253h-1.381v2.169c-.183.056-.563.084-.985.084-.423 0-.902-.098-.902-.718v-1.535h-1.366Zm7.197-.013h-1.38l.014 5.253h1.38v-2.183h1.958v2.183h1.38v-5.253h-1.38v1.958h-1.972v-1.958Zm6.958-.141c-1.409 0-2.69.873-2.69 2.775 0 1.901 1.281 2.76 2.69 2.76 1.408 0 2.676-.887 2.676-2.774.014-1.916-1.268-2.775-2.676-2.761Zm0 1.155c1.07 0 1.267.93 1.267 1.605 0 .677-.197 1.606-1.253 1.606-1.07 0-1.268-.943-1.268-1.605-.014-.677.197-1.606 1.254-1.606Zm6.887 2.676c-.113.366-.493.577-.887.577-1.113 0-1.211-.887-1.211-1.281h3.563v-.521c0-1.803-1-2.62-2.465-2.62-2.296 0-2.521 2.028-2.521 2.662 0 2.155 1.141 2.873 2.62 2.873.901 0 1.943-.422 2.31-1.69h-1.409Zm-2.098-1.606c.084-.69.422-1.112 1.084-1.112.437 0 .986.267 1.071 1.098l-2.155.014Zm9.69-2.253c-1.409 0-2.69.873-2.69 2.774 0 1.902 1.281 2.761 2.69 2.761 1.408 0 2.676-.887 2.676-2.775 0-1.901-1.268-2.76-2.676-2.76Zm0 1.169c1.07 0 1.267.93 1.267 1.606s-.197 1.605-1.253 1.605c-1.071 0-1.268-.93-1.268-1.605-.014-.69.183-1.606 1.254-1.606Zm4.422.267c.099-1.295.916-1.718 2.043-1.901 1.042-.169 1.633-.563 1.788-1.45h-1.042c-.085.337-.62.366-1.521.577-1.873.45-2.31 1.901-2.31 3.93 0 1.929 1.014 2.929 2.592 2.929 1.521 0 2.605-.944 2.591-2.775 0-1.774-1.169-2.436-2.465-2.436-.76.014-1.366.507-1.676 1.126Zm1.578 0c.873 0 1.126.775 1.141 1.451 0 .676-.268 1.479-1.184 1.493-.929 0-1.169-.803-1.169-1.479-.014-.718.296-1.465 1.212-1.465Zm5.915-1.45c-1.408 0-2.69.873-2.69 2.774 0 1.902 1.282 2.76 2.69 2.76 1.409 0 2.676-.886 2.676-2.774.014-1.901-1.267-2.76-2.676-2.76Zm.014 1.169c1.071 0 1.254.93 1.268 1.605 0 .676-.197 1.606-1.254 1.606-1.07 0-1.267-.93-1.267-1.606-.028-.69.183-1.605 1.253-1.605Zm6.113.014c.944 0 1.183.845 1.183 1.69 0 .775-.338 1.521-1.225 1.521-.888 0-1.141-.972-1.141-1.591 0-.831.296-1.62 1.183-1.62Zm-1.183-1.056h-1.324l.014 7.366h1.38v-2.789l.028.014c.169.282.508.817 1.479.803 1.564 0 2.226-1.366 2.226-2.803 0-1.817-1.043-2.718-2.197-2.718-.93 0-1.31.493-1.564.901h-.014l-.028-.774Zm4.225 0 1.944 5.464c-.127.719-.394.789-.902.789-.112 0-.211-.014-.267-.014v1.098c.197.015.437.015.62.015 1.197 0 1.436-.493 2.028-2.212l1.803-5.169h-1.465l-1.071 3.874h-.014l-1.126-3.874-1.55.028Zm6.69-.015v1.423c0 1.268-.197 2.282-.549 2.732h-.577v2.521h1.281v-1.422h3.268v1.422h1.282v-2.52h-.634V11.9h-4.071Zm2.691 4.155h-1.874c.268-.394.465-1 .465-2.408V13h1.394l.015 3.056Zm5.267-4.295c-1.408 0-2.69.873-2.69 2.774 0 1.902 1.282 2.76 2.69 2.76 1.409 0 2.676-.887 2.676-2.774 0-1.901-1.267-2.76-2.676-2.76Zm0 1.155c1.071 0 1.268.93 1.268 1.605 0 .676-.197 1.606-1.254 1.606-1.07 0-1.267-.93-1.267-1.606-.014-.676.197-1.591 1.253-1.606Zm3.62 4.239h2.648c1.197 0 1.929-.465 1.929-1.437 0-.859-.591-1.197-1.141-1.324.55-.14.986-.535.972-1.14 0-.874-.859-1.353-2.042-1.353h-2.38l.014 5.254Zm1.366-2.31h1c.507 0 .845.211.845.676 0 .521-.31.676-.817.676h-1.014l-.014-1.352Zm0-2h.916c.464 0 .774.155.774.592 0 .408-.324.591-.774.591h-.902l-.014-1.183Zm5.366.732c.042-.31.155-.732.845-.732.352 0 .916.028.916.62 0 .253-.211.408-.803.465-1.324.112-2.451.605-2.451 1.816 0 1.085.803 1.536 1.592 1.536.943 0 1.394-.437 1.704-.76.028.295.042.365.127.619h1.493v-.211c-.169-.057-.31-.198-.31-.817v-2.845c0-1.296-1.352-1.522-2.099-1.522-1.07 0-2.183.226-2.338 1.845l1.324-.013Zm1.761 1v.677c0 .633-.62 1.042-1.226 1.042-.267 0-.647-.141-.647-.634 0-.563.422-.704.943-.789.564-.098.803-.183.93-.295Zm3.915-2.704h-1.38v5.254h1.38v-2.183h1.958v2.183h1.38v-5.254h-1.38v1.958h-1.958v-1.958Zm5.888 0h-1.381l.014 5.254h1.479l1.986-3.352v3.338h1.38l-.014-5.254h-1.478l-1.986 3.338v-3.324Zm7.915 3.705c-.113.366-.493.577-.887.577-1.113 0-1.197-.887-1.197-1.282h3.563v-.52c0-1.804-.986-2.62-2.465-2.62-2.296 0-2.521 2.028-2.521 2.661 0 2.155 1.141 2.874 2.62 2.874.901 0 1.943-.423 2.31-1.69h-1.423Zm-2.098-1.62c.07-.69.422-1.113 1.084-1.113.437 0 .986.268 1.07 1.099l-2.154.014Z" fill="#6D6E70"/><path fill-rule="evenodd" clip-rule="evenodd" d="M74.817 27.986c-.479-4.944-3.479-7.86-8.817-7.845-4.887.014-8.704 3.901-8.69 10.14.014 6.254 3.521 10.156 9.31 10.142 4.62-.015 7.83-3.015 8.324-8l-5.507.014c-.212 1.845-1.085 3.267-2.93 3.267-2.915.014-3.45-2.535-3.465-5.24-.014-3.717 1.198-5.619 3.212-5.633 1.802 0 2.943 1.14 3.112 3.155h5.451Zm2.169-2.113.042 14.014 5.057-.014-.029-9.957 3.747-.015.028 9.958 5.056-.014-.042-14.014-13.859.042Zm21.099 5.366c0-1.492.845-2.436 2.352-2.436 1.183 0 2.239 1.14 2.239 2.422l-4.591.014Zm9.647 2.803c-.014-5.267-2.788-8.662-7.507-8.648-4.084.014-7.21 2.958-7.197 7.564.014 4.704 3.183 7.267 7.254 7.253 2.957-.014 6.169-1.169 7.028-4.648l-4.831.014c-.366.831-1.085 1.24-1.887 1.24-1.338 0-2.507-1.085-2.507-2.747l9.647-.028Zm7.127-8.296-5.056.015.042 14.014 10.634-.029.014 3.338 4.62-.014-.028-7.408h-1.409l-.028-9.958-5.056.014.028 9.958-3.747.014-.014-9.943ZM19.423 52.535c.957-5.55 1.901-11.098 2.859-16.634 1.943-.014 3.887-.014 5.83-.014l-3.041 16.69c-.254 1.282.183 2.536 1.971 3.719-2.31-.578-4.62-1.155-6.93-1.747-.605-.408-.83-1.084-.69-2.014ZM28.606 7.113l5.535 9.084c.648 2.183.324 4.211-.873 6.07-1.634.972-3.282 1.958-4.916 2.93-2.577.211-4.83-.493-6.662-2.479-1.746-2.915-3.493-5.845-5.24-8.76a4.503 4.503 0 0 0-1.168-.888l12.972-7.464c-.029.52.042 1.014.352 1.507ZM14.563 12.76 28.31 5.014c.042-.268.099-.55.155-.83l-14.493 8.323.591.254Zm-1.21-.62 15.21-8.564c.029-.21.043-.436.043-.647l-15.634 8.83c.098.155.24.282.38.38ZM31.648 29.211l-2.268-3.69 3.268-2.014 2.225 3.563-3.225 2.141ZM33.268 30.901l-1.099-1.295 2.803-1.719.746 1.535-2.45 1.48ZM33.845 30.972c.507-.24 1.028-.479 1.535-.733.17.409.324.831.48 1.254-.1.268-.212.535-.31.789l.718.042c-.029 1-.043 2-.057 3-1.197 0-2.394-.014-3.605-.014.605-.69 1.14-1.437 1.352-2.45l.817-.818a31.373 31.373 0 0 0-.93-1.07Z" fill="#E6A52F"/><path d="m37.85 31.196-.859.003.018 5.31.86-.003-.019-5.31ZM39.372 31.196l-.86.003.018 5.31.86-.003-.018-5.31Z" fill="#E6A52F"/><path fill-rule="evenodd" clip-rule="evenodd" d="M40.042 36.493h.86l-.015-5.31h-.873l.028 5.31Z" fill="#E6A52F"/><path d="m41.967 32.66-.86.004.011 2.592.86-.004-.011-2.591ZM42.999 31.674l-1.465.005.003.719 1.465-.006-.003-.718Z" fill="#E6A52F"/><path fill-rule="evenodd" clip-rule="evenodd" d="m23.38 32.422 5.24-.014v-1.056l-5.24.014v1.056Z" fill="#E6A52F"/><path d="m27.095 32.86-7.465.027.008 2.282 7.465-.027-.008-2.282Z" fill="#E6A52F"/><path fill-rule="evenodd" clip-rule="evenodd" d="M18 35.873h1.254l-.015-3.676h-1.253L18 35.873Z" fill="#E6A52F"/><path d="m17.261 32.21-.887.003.013 3.676.888-.003-.014-3.676ZM14.993 32.478l-.887.003.014 3.451.887-.004-.014-3.45Z" fill="#E6A52F"/><path d="m17.66 33.112-.62.002.005 1.845.62-.002-.006-1.845ZM28.617 33.323l-1.028.003.005 1.845 1.028-.003-.005-1.845Z" fill="#E6A52F"/><path d="m17.66 33.713-3 .011.003.648 3-.011-.002-.648ZM43.013 35.42l-1.465.005.003.719 1.465-.005-.003-.719Z" fill="#E6A52F"/><path fill-rule="evenodd" clip-rule="evenodd" d="M24.366 30.972c-.14.042-.281.084-.436.127-.536-.564-1-1.282-1.155-2.493.028-1.141.76-1.747 2.127-1.874 1.07-.14 2.591 2.55 3.873 3.831-.451.029-.902.07-1.338.099-.803-1.014-1.465-2.296-2.409-3.042-.887-.338-1.422 0-1.605 1.056-.07.845.38 1.592.943 2.296Z" fill="#E6A52F"/><path fill-rule="evenodd" clip-rule="evenodd" d="M23.901 29.042c.338.606.677 1.197 1.015 1.803.746-.042 1.492-.07 2.225-.098-.606-.803-1.211-1.606-1.803-2.423-.817-.535-1.38-.493-1.437.718ZM31.282 30.253c1.225 0 2.211.944 2.211 2.1 0 1.168-.986 2.112-2.197 2.126-1.226 0-2.211-.944-2.211-2.099-.015-1.169.971-2.112 2.197-2.127ZM31.789 44.14a57.114 57.114 0 0 1-1.719-9.38c.719.085 1.437.156 2.155.24.099 6.69.634 10.535 1.634 11.352-.944-.07-1.732-.563-2.07-2.211Z" fill="#E6A52F"/></svg><svg fill="none" viewBox="0 0 22 22" id="header--phone" xmlns="http://www.w3.org/2000/svg"><path d="M8.366 1.156A1.152 1.152 0 0 0 7.787 1l-3.606.58c-1.475 0-2.54 1.352-2.068 2.731.968 2.832 2.811 7.23 5.634 10.016 2.823 2.786 7.276 4.606 10.145 5.561 1.396.466 2.766-.586 2.766-2.04L21 14.31c0-.201-.054-.398-.157-.571a1.133 1.133 0 0 0-.429-.414l-2.522-1.384a1.154 1.154 0 0 0-1.065-.023l-1.87.86s-1.997-.378-3.628-1.988C9.698 9.18 9.308 7.202 9.308 7.202l.896-2.089a1.116 1.116 0 0 0-.023-1.05L8.785 1.58a1.134 1.134 0 0 0-.419-.424Z" stroke="#FAA61A" stroke-width="2" stroke-linejoin="round"/></svg><svg fill="none" viewBox="0 0 16 16" id="header--phone_back" xmlns="http://www.w3.org/2000/svg"><g clip-path="url(#fa)" stroke="#FAA61A" stroke-width="2" stroke-linejoin="round"><path d="M5.753 2.747a.673.673 0 0 0-.341-.093L3.286 3c-.87 0-1.497.807-1.22 1.63.571 1.692 1.658 4.318 3.322 5.982 1.664 1.664 4.29 2.75 5.982 3.321.823.278 1.63-.35 1.63-1.219l.202-2.112a.672.672 0 0 0-.346-.588l-1.486-.827a.673.673 0 0 0-.628-.014l-1.103.514S8.46 9.461 7.5 8.5c-.962-.961-1.192-2.143-1.192-2.143l.529-1.247a.673.673 0 0 0-.014-.628L6 3a.673.673 0 0 0-.247-.253Z"/><path d="m10 6 4-4m-4 4h4m-4 0V2" stroke-linecap="round"/></g><defs><clipPath id="fa"><path fill="#fff" d="M0 0h16v16H0z"/></clipPath></defs></svg><svg fill="none" viewBox="0 0 24 24" id="header--whatsapp" xmlns="http://www.w3.org/2000/svg"><g clip-path="url(#ia)"><circle cx="12" cy="12" r="12" fill="#09DA47"/><path d="M17.601 6.326A7.854 7.854 0 0 0 11.994 4c-4.367 0-7.926 3.558-7.93 7.926 0 1.399.366 2.76 1.057 3.965L4 20l4.204-1.102a7.934 7.934 0 0 0 3.79.965h.004c4.368 0 7.926-3.558 7.93-7.93A7.899 7.899 0 0 0 17.6 6.326h.001Zm-5.607 12.195a6.573 6.573 0 0 1-3.356-.92l-.24-.144-2.494.654.666-2.433-.156-.251a6.56 6.56 0 0 1-1.007-3.505c0-3.626 2.957-6.584 6.591-6.584a6.56 6.56 0 0 1 4.66 1.931 6.557 6.557 0 0 1 1.928 4.66c-.004 3.639-2.961 6.592-6.592 6.592Zm3.615-4.934c-.197-.099-1.17-.578-1.353-.646-.182-.065-.315-.099-.445.099-.133.197-.513.646-.627.775-.114.133-.232.148-.43.05-.197-.1-.836-.308-1.592-.985-.59-.525-.985-1.175-1.103-1.372-.114-.198-.011-.304.088-.403.087-.088.197-.232.296-.346.1-.114.133-.198.198-.33.065-.134.034-.248-.015-.347-.05-.099-.445-1.076-.612-1.47-.16-.389-.323-.335-.445-.34-.114-.007-.247-.007-.38-.007a.729.729 0 0 0-.529.247c-.182.198-.691.677-.691 1.654 0 .977.71 1.916.81 2.049.098.133 1.394 2.132 3.383 2.992.47.205.84.326 1.129.418.475.152.904.129 1.246.08.38-.058 1.171-.48 1.338-.943.164-.464.164-.86.114-.943-.049-.084-.182-.133-.38-.232Z" fill="#fff"/></g><defs><clipPath id="ia"><path fill="#fff" d="M0 0h24v24H0z"/></clipPath></defs></svg><svg fill="none" viewBox="0 0 16 16" id="header--zoom" xmlns="http://www.w3.org/2000/svg"><path fill-rule="evenodd" clip-rule="evenodd" d="m11.654 10.492 2.751 2.735a.834.834 0 1 1-1.175 1.183l-2.77-2.753a5.978 5.978 0 0 1-7.728-.583 5.894 5.894 0 0 1-.01-8.36 5.977 5.977 0 0 1 8.409.011 5.892 5.892 0 0 1 .523 7.767ZM3.883 3.869a4.268 4.268 0 0 0 .007 6.053 4.328 4.328 0 0 0 6.089.007 4.267 4.267 0 0 0-.007-6.053 4.329 4.329 0 0 0-6.089-.007Z" fill="#231F20"/></svg><svg fill="none" viewBox="0 0 26 22" id="header--Избранное" xmlns="http://www.w3.org/2000/svg"><path d="M2.722 11.307s5.87 7.18 7.338 8.616 4.403 1.436 5.871 0l7.339-8.616c2.307-2.254 2.307-6.362 0-8.616-2.308-2.255-6.5-2.255-8.807 0l-1.502 1.906-1.433-1.906C9.232.447 5.018.447 2.722 2.69c-2.296 2.243-2.296 6.373 0 8.616Z" stroke="#FAA61A" stroke-width="2" stroke-linecap="round" stroke-linejoin="round"/></svg><svg fill="none" viewBox="0 0 18 18" id="header--Каталог" xmlns="http://www.w3.org/2000/svg"><path d="M6 1H2a1 1 0 0 0-1 1v4a1 1 0 0 0 1 1h4a1 1 0 0 0 1-1V2a1 1 0 0 0-1-1ZM16 1h-4a1 1 0 0 0-1 1v4a1 1 0 0 0 1 1h4a1 1 0 0 0 1-1V2a1 1 0 0 0-1-1ZM16 11h-4a1 1 0 0 0-1 1v4a1 1 0 0 0 1 1h4a1 1 0 0 0 1-1v-4a1 1 0 0 0-1-1ZM6 11H2a1 1 0 0 0-1 1v4a1 1 0 0 0 1 1h4a1 1 0 0 0 1-1v-4a1 1 0 0 0-1-1Z" stroke="#fff" stroke-width="2"/></svg><svg fill="none" viewBox="0 0 26 26" id="header--Корзина" xmlns="http://www.w3.org/2000/svg"><path d="M1 1h3.006a1 1 0 0 1 .958.713l1.422 4.742m0 0 2.65 8.832a1 1 0 0 0 .958.713h12.65a1 1 0 0 0 .989-.845l1.186-7.545a1 1 0 0 0-.988-1.155H6.386Z" stroke="#FAAD2D" stroke-width="2" stroke-linecap="round"/><circle cx="9.25" cy="22.75" r="2.25" stroke="#FAA61A" stroke-width="2"/><circle cx="21.25" cy="22.75" r="2.25" stroke="#FAA61A" stroke-width="2"/></svg></svg>