<svg width="22" height="22" viewBox="0 0 22 22" fill="none" xmlns="http://www.w3.org/2000/svg">
<path d="M8.36596 1.15598C8.19059 1.05396 7.99076 1.0001 7.78721 1L4.18073 1.58021C2.70633 1.58021 1.64161 2.93215 2.11292 4.31114C3.08121 7.14345 4.92421 11.5401 7.74692 14.3268C10.5696 17.1129 15.0231 18.933 17.892 19.8883C19.2882 20.3542 20.6576 19.3025 20.6576 17.8475L21 14.3096C21.0001 14.1088 20.9458 13.9117 20.8427 13.7386C20.7397 13.5654 20.5917 13.4226 20.414 13.325L17.892 11.9409C17.7298 11.8519 17.5481 11.8033 17.3625 11.7992C17.177 11.7952 16.9933 11.8359 16.8273 11.9178L14.9566 12.7786C14.9566 12.7786 12.9596 12.4 11.3288 10.7901C9.69751 9.18016 9.3078 7.20182 9.3078 7.20182L10.2037 5.11329C10.2867 4.94945 10.328 4.76809 10.3241 4.58493C10.3201 4.40176 10.2709 4.22232 10.1808 4.06215L8.7846 1.58021C8.68587 1.40447 8.54133 1.258 8.36596 1.15598Z" stroke="#FAA61A" stroke-width="2" stroke-linejoin="round"/>
</svg>
