<svg width="14" height="16" viewBox="0 0 14 16" fill="none" xmlns="http://www.w3.org/2000/svg">
<path fill-rule="evenodd" clip-rule="evenodd" d="M13 6.72728C13 11.1818 6.99996 15 6.99996 15C6.99996 15 1 11.1818 1 6.72728C1 5.20831 1.63213 3.75155 2.75734 2.67748C3.88257 1.60341 5.40867 1 6.99996 1C8.59125 1 10.1174 1.60341 11.2426 2.67748C12.3678 3.75155 13 5.20831 13 6.72728ZM7 9C8.10457 9 9 8.10457 9 7C9 5.89543 8.10457 5 7 5C5.89543 5 5 5.89543 5 7C5 8.10457 5.89543 9 7 9Z" stroke="#FAA61A" stroke-width="2"/>
</svg>
