<svg width="16" height="16" viewBox="0 0 16 16" fill="none" xmlns="http://www.w3.org/2000/svg">
<path fill-rule="evenodd" clip-rule="evenodd" d="M11.654 10.492L14.4054 13.227C14.7333 13.5529 14.7334 14.0833 14.4057 14.4093C14.0806 14.7328 13.5553 14.7329 13.23 14.4096L10.46 11.657C9.31253 12.4935 7.90474 12.8942 6.48874 12.7874C5.07274 12.6806 3.741 12.0732 2.73201 11.074C2.18035 10.5269 1.7423 9.87613 1.44305 9.15912C1.14381 8.44212 0.989276 7.67302 0.988347 6.89608C0.987417 6.11913 1.14011 5.34967 1.43764 4.63195C1.73516 3.91423 2.17166 3.26241 2.72201 2.714C3.84254 1.60788 5.35426 0.988577 6.92877 0.990636C8.50328 0.992696 10.0134 1.61595 11.131 2.725C12.1477 3.73466 12.7616 5.08021 12.8579 6.50982C12.9541 7.93944 12.5262 9.35514 11.654 10.492ZM3.88301 3.869C3.48457 4.26609 3.16857 4.73803 2.95316 5.25768C2.73775 5.77732 2.6272 6.33443 2.62785 6.89695C2.6285 7.45948 2.74034 8.01632 2.95695 8.53547C3.17356 9.05462 3.49066 9.52583 3.89001 9.922C4.69942 10.7249 5.79296 11.1761 6.93307 11.1774C8.07318 11.1787 9.16776 10.7301 9.97901 9.929C10.3776 9.53197 10.6937 9.06005 10.9092 8.5404C11.1246 8.02074 11.2352 7.4636 11.2346 6.90104C11.2339 6.33848 11.1221 5.7816 10.9054 5.26244C10.6887 4.74328 10.3715 4.2721 9.97201 3.876C9.16247 3.0733 8.06898 2.62235 6.92895 2.62104C5.78892 2.61973 4.69439 3.06817 3.88301 3.869Z" fill="#231F20"/>
</svg>
